<?xml version="1.0" encoding="UTF-8"?>
<svg width="56px" height="119px" viewBox="0 0 56 119" version="1.1" xmlns="http://www.w3.org/2000/svg" xmlns:xlink="http://www.w3.org/1999/xlink">
    <!-- Generator: Sketch 41.2 (35397) - http://www.bohemiancoding.com/sketch -->
    <title>Android</title>
    <desc>Created with Sketch.</desc>
    <defs>
        <path d="M9.16363636,1.01709402 C4.32041137,0.564739562 0.530446549,4.25147527 1.01818182,9.15384615 L1.01818182,16.2735043 L0,16.2735043 C0.146857916,16.7590466 0,16.876796 0,17.2905983 L0,21.3589744 C0,21.4963808 0.146857916,21.614054 0,21.3589744 L1.01818182,21.3589744 L1.01818182,28.4786325 L0,28.4786325 C0.146857916,28.1148084 0,28.2325578 0,28.4786325 L0,31.5299145 C0,31.4803056 0.146857916,31.5979787 0,31.5299145 L1.01818182,31.5299145 L1.01818182,37.6324786 L0,37.6324786 C0.146857916,38.02252 0,38.1402694 0,38.6495726 L0,41.7008547 C0,41.3880172 0.14670636,41.5056142 0,41.7008547 L1.01818182,41.7008547 L1.01818182,110.863248 C0.530446549,112.719654 1.42106631,114.854842 3.05454545,116.965812 C4.63989175,118.092758 6.7514479,119 9.16363636,119 L47.8545455,119 C52.3113505,119 56,115.165182 56,110.863248 L56,9.15384615 C56,6.59205782 55.1512855,4.52203201 53.9636364,3.05128205 C52.0532503,1.40697126 49.9835995,0.564739562 47.8545455,1.01709402 L46.8363636,1.01709402 L46.8363636,0 L37.6727273,0 C38.136682,0.0312473982 38.1163735,0 37.6727273,0 L37.6727273,1.01709402 L9.16363636,1.01709402 Z" id="path-1"></path>
        <mask id="mask-2" maskContentUnits="userSpaceOnUse" maskUnits="objectBoundingBox" x="0" y="0" width="56" height="119" fill="white">
            <use xlink:href="#path-1"></use>
        </mask>
        <rect id="path-3" x="18" y="107" width="21" height="5" rx="2.5"></rect>
        <mask id="mask-4" maskContentUnits="userSpaceOnUse" maskUnits="objectBoundingBox" x="0" y="0" width="21" height="5" fill="white">
            <use xlink:href="#path-3"></use>
        </mask>
        <rect id="path-5" x="23" y="9" width="12" height="3" rx="1.5"></rect>
        <mask id="mask-6" maskContentUnits="userSpaceOnUse" maskUnits="objectBoundingBox" x="0" y="0" width="12" height="3" fill="white">
            <use xlink:href="#path-5"></use>
        </mask>
        <path d="M52,17 C52,17.1002629 51.8998079,17 52,17 L5,17 C5.10019206,17 5,17.1002629 5,17 L5,101 C5,100.899737 5.10019206,101 5,101 L52,101 C51.8998079,101 52,100.899737 52,101 L52,17 Z" id="path-7"></path>
        <mask id="mask-8" maskContentUnits="userSpaceOnUse" maskUnits="objectBoundingBox" x="0" y="0" width="47" height="84" fill="white">
            <use xlink:href="#path-7"></use>
        </mask>
    </defs>
    <g id="FM-site" stroke="none" stroke-width="1" fill="none" fill-rule="evenodd">
        <g id="Desktop-13-15&quot;-Website-4.1" transform="translate(-355.000000, -5428.000000)">
            <g id="SKF-Machine-health" transform="translate(0.000000, 4867.000000)">
                <g id="Android" transform="translate(355.000000, 561.000000)">
                    <g>
                        <use id="Hull" stroke="#FFFFFF" mask="url(#mask-2)" stroke-width="2" xlink:href="#path-1"></use>
                        <path d="M28.6580803,5.34529464 C28.1065803,5.34529464 27.6580803,5.79389464 27.6580803,6.34529464 C27.6580803,6.89669464 28.1065803,7.34529464 28.6580803,7.34529464 C29.2094803,7.34529464 29.6580803,6.89669464 29.6580803,6.34529464 C29.6580803,5.79389464 29.2094803,5.34529464 28.6580803,5.34529464" id="Camera" fill="#FFFFFF"></path>
                        <use id="Button" stroke="#FFFFFF" mask="url(#mask-4)" stroke-width="2" xlink:href="#path-3"></use>
                        <use id="speaker" stroke="#FFFFFF" mask="url(#mask-6)" stroke-width="2" xlink:href="#path-5"></use>
                        <use id="Screen" stroke="#FFFFFF" mask="url(#mask-8)" stroke-width="2" xlink:href="#path-7"></use>
                        <g id="Android-dude" transform="translate(18.000000, 50.000000)" fill="#FFFFFF">
                            <path d="M9.21437043,17.6237736 L11.785416,17.6237736 L11.785416,20.7490321 C11.785416,21.4399726 12.4043156,22 13.1678906,22 C13.9314656,22 14.5505594,21.4399726 14.5505594,20.7490321 L14.5505594,17.6237736 L16.2106942,17.6237736 C16.6396711,17.6237736 16.9874744,17.3090547 16.9874744,16.9208839 L16.9874744,11.8420314 L17,11.8420314 L17,7 L4,7 L4,11.8420314 L4.01213719,11.8420314 L4.01213719,16.9208839 C4.01213719,17.3090547 4.36032894,17.6237736 4.78930583,17.6237736 L6.44942115,17.6237736 L6.44942115,20.7490321 C6.44942115,21.4399726 7.06832081,22 7.83189579,22 C8.59527658,22 9.21437043,21.4399726 9.21437043,20.7490321 L9.21437043,17.6237736 Z" id="Combined-Shape"></path>
                            <path d="M21,14.6141417 C21,15.3795856 20.3283236,16 19.4998947,16 C18.6714657,16 18,15.3795856 18,14.6141417 L18,8.38605295 C18,7.6206091 18.6714657,7 19.4998947,7 C20.3283236,7 21,7.6206091 21,8.38605295 L21,14.6141417 Z" id="Fill-5"></path>
                            <path d="M3,14.6141417 C3,15.3795856 2.32832362,16 1.49989466,16 C0.671465693,16 0,15.3795856 0,14.6141417 L0,8.38605295 C0,7.6206091 0.671465693,7 1.49989466,7 C2.32832362,7 3,7.6206091 3,8.38605295 L3,14.6141417 Z" id="Fill-6"></path>
                            <path d="M13.6621114,1.58522711 C16.8708766,2.87795232 17,6 17,6 L4,6 C4,6 4.0914888,2.8498179 7.32377202,1.56790333 L6.21749386,0.165541127 C6.19438762,0.136170449 6.22787209,0.0791878155 6.29249123,0.0380336914 C6.3563271,-0.00259281579 6.42740815,-0.012441666 6.45071021,0.0171048847 L7.59484016,1.46744952 C8.37958186,1.19636021 9.33549963,1.03172604 10.4999021,1.03494838 C11.6578025,1.03815078 12.6096572,1.20813668 13.3920903,1.48344611 L14.5488394,0.0171048847 C14.5721415,-0.012441666 14.6432225,-0.00259281579 14.7072542,0.0380336914 C14.7718734,0.0791878155 14.8053578,0.136170449 14.7820558,0.165541127 L13.6621114,1.58522711 Z M8.42956363,3.45655202 C8.42956363,3.84470224 8.07905376,4.15933783 7.64708461,4.15933783 C7.21491964,4.15933783 6.86460558,3.84470224 6.86460558,3.45655202 C6.86460558,3.06840179 7.21491964,2.7537662 7.64708461,2.7537662 C8.07905376,2.7537662 8.42956363,3.06840179 8.42956363,3.45655202 Z M14.1353553,3.45655202 C14.1353553,3.84470224 13.7846496,4.15933783 13.3528762,4.15933783 C12.9207113,4.15933783 12.5703972,3.84470224 12.5703972,3.45655202 C12.5703972,3.06840179 12.9207113,2.7537662 13.3528762,2.7537662 C13.7846496,2.7537662 14.1353553,3.06840179 14.1353553,3.45655202 Z" id="Android"></path>
                        </g>
                    </g>
                </g>
            </g>
        </g>
    </g>
</svg>