<?xml version="1.0" encoding="UTF-8"?>
<svg width="36px" height="243px" viewBox="0 0 36 243" version="1.1" xmlns="http://www.w3.org/2000/svg" xmlns:xlink="http://www.w3.org/1999/xlink">
    <!-- Generator: Sketch 41.2 (35397) - http://www.bohemiancoding.com/sketch -->
    <title>Apple Watch 42mm Black Steel + Black Open</title>
    <desc>Created with Sketch.</desc>
    <defs>
        <path d="M32,99.9145803 L32,117.666393 C32,120.80628 29.7555437,123.412518 26.8121991,123.913191 C26.5828338,124.294607 26.4345073,124.698643 26.2820675,125.13713 C25.7390168,126.699193 25.3817731,131.149822 25.3968123,131.970417 C25.4118514,132.791012 25.3968116,228.834303 25.4118514,233.005951 C25.4268912,237.177599 20.918537,241 16.0194862,241 C11.1204355,241 6.6029428,237.143222 6.62712107,233.005951 C6.65129935,228.86868 6.6029428,132.903456 6.6029428,131.970417 C6.6029428,131.037378 6.285388,126.783423 5.71793249,125.13713 C5.56678297,124.698617 5.41820737,124.294667 5.18850202,123.913343 C2.24421305,123.413036 0,120.806486 0,117.666393 L0,92.3336073 C0,89.7404651 1.53086106,87.5113053 3.72197037,86.5315825 C4.0480335,86.2902851 4.38662119,86.0231783 4.62205314,85.7948532 C5.22807961,85.2071204 5.48241308,84.5424468 5.71793249,83.857348 C6.26412867,82.2685263 6.62712107,78.0109092 6.62712107,76.9576566 L6.62712107,47.3299901 C6.62712107,41.2519821 3.00004888,35.9510221 2.96686112,32.4401801 C2.93367336,28.9293381 6.62712107,23.3117166 6.62712107,19.7561662 L6.62712107,8.84732184 C6.62712107,3.32789422 11.177627,9.05499768e-11 16.0194862,0 C20.8613454,-9.05460851e-11 25.4118514,3.22997464 25.4118514,8.777105 L25.4118514,19.7561662 C25.4118514,23.3624592 29.1266052,28.9293381 29.1266052,32.4401801 C29.1266052,35.9510221 25.4118514,41.2172851 25.4118514,47.3299901 L25.4118514,76.9576566 C25.4118514,78.0103264 25.7802244,82.0385719 26.2820675,83.857348 C26.4821511,84.5824894 26.7719204,85.2071204 27.3779469,85.7948532 C27.6132571,86.0230603 27.9516165,86.290009 28.277524,86.5312083 C30.469213,87.5107588 32,89.7402166 32,92.3336073 L32,94.0626387 C32.0285046,94.0406462 32.0573468,94.0197763 32.0864885,94 L32.7550191,94 L32.8707528,94 L32.9864865,94 C33.3108437,94 33.5928349,94.1460152 33.7365549,94.3608551 C33.748083,94.3771371 33.7595765,94.3964435 33.7709768,94.4186569 C33.7798259,94.4355054 33.7878619,94.4526981 33.7950453,94.4702032 C33.927081,94.778863 34,95.0896368 34,96.3749961 L34,97.6306152 C34,98.2064103 33.8954437,99.337073 33.7972973,99.5434783 C33.7800464,99.5797574 33.7579018,99.6136175 33.7325988,99.6450147 C33.5877187,99.856636 33.3079482,100 32.9864865,100 L32.0945946,99.9959637 C32.062896,99.9700706 32.0313369,99.9429712 32,99.9145803 Z M16.5,206 C17.3284271,206 18,206.671573 18,207.5 C18,208.328427 17.3284271,209 16.5,209 C15.6715729,209 15,208.328427 15,207.5 C15,206.671573 15.6715729,206 16.5,206 Z M16.5,200 C17.3284271,200 18,200.671573 18,201.5 C18,202.328427 17.3284271,203 16.5,203 C15.6715729,203 15,202.328427 15,201.5 C15,200.671573 15.6715729,200 16.5,200 Z M16.5,194 C17.3284271,194 18,194.671573 18,195.5 C18,196.328427 17.3284271,197 16.5,197 C15.6715729,197 15,196.328427 15,195.5 C15,194.671573 15.6715729,194 16.5,194 Z M16.5,188 C17.3284271,188 18,188.671573 18,189.5 C18,190.328427 17.3284271,191 16.5,191 C15.6715729,191 15,190.328427 15,189.5 C15,188.671573 15.6715729,188 16.5,188 Z M16.5,182 C17.3284271,182 18,182.671573 18,183.5 C18,184.328427 17.3284271,185 16.5,185 C15.6715729,185 15,184.328427 15,183.5 C15,182.671573 15.6715729,182 16.5,182 Z M16.5,176 C17.3284271,176 18,176.671573 18,177.5 C18,178.328427 17.3284271,179 16.5,179 C15.6715729,179 15,178.328427 15,177.5 C15,176.671573 15.6715729,176 16.5,176 Z M16.5,170 C17.3284271,170 18,170.671573 18,171.5 C18,172.328427 17.3284271,173 16.5,173 C15.6715729,173 15,172.328427 15,171.5 C15,170.671573 15.6715729,170 16.5,170 Z M5,32 C5,30.8954305 5.88967395,30 6.991155,30 L25.008845,30 C26.1085295,30 27,30.8877296 27,32 C27,33.1045695 26.1103261,34 25.008845,34 L6.991155,34 C5.89147046,34 5,33.1122704 5,32 Z M32.4527439,105 L32.7852411,105 L33,105.178315 L33,114.776655 L32.7886407,115 L32.4527439,115 C32.4527439,115 32,114.43961 32,113.456303 C32,112.472997 32,106.679944 32,106.679944 C32,106.679944 32.070368,105.745518 32.2273984,105.415694 C32.3844288,105.085871 32.4527439,105 32.4527439,105 Z" id="path-1"></path>
        <mask id="mask-2" maskContentUnits="userSpaceOnUse" maskUnits="objectBoundingBox" x="-1" y="-1" width="36" height="243">
            <rect x="-1" y="-1" width="36" height="243" fill="white"></rect>
            <use xlink:href="#path-1" fill="black"></use>
        </mask>
        <mask id="mask-4" maskContentUnits="userSpaceOnUse" maskUnits="objectBoundingBox" x="-1" y="-1" width="36" height="243">
            <rect x="-1" y="-1" width="36" height="243" fill="white"></rect>
            <use xlink:href="#path-1" fill="black"></use>
        </mask>
        <rect id="path-5" x="4" y="90" width="24" height="29"></rect>
        <mask id="mask-6" maskContentUnits="userSpaceOnUse" maskUnits="objectBoundingBox" x="0" y="0" width="24" height="29" fill="white">
            <use xlink:href="#path-5"></use>
        </mask>
    </defs>
    <g id="FM-site" stroke="none" stroke-width="1" fill="none" fill-rule="evenodd">
        <g id="Desktop-13-15&quot;-Website-4.1" transform="translate(-200.000000, -6066.000000)">
            <g id="Tennis-Watch" transform="translate(0.000000, 5627.000000)">
                <g id="Apple-Watch-42mm-Black-Steel-+-Black-Open" transform="translate(201.000000, 440.000000)">
                    <mask id="mask-3" fill="white">
                        <use xlink:href="#path-1"></use>
                    </mask>
                    <g id="Combined-Shape" stroke="#FFFFFF" mask="url(#mask-2)" stroke-width="2">
                        <use mask="url(#mask-4)" xlink:href="#path-1"></use>
                    </g>
                    <g id="Screen" mask="url(#mask-3)" stroke-width="2" stroke="#FFFFFF">
                        <use mask="url(#mask-6)" xlink:href="#path-5"></use>
                    </g>
                    <path d="M16.0858131,100.885865 C16.5004605,100.885865 17.2699671,100.357143 18.2716135,100.357143 C19.9957743,100.357143 20.6740372,101.495248 20.6740372,101.495248 C20.6740372,101.495248 19.3474357,102.124428 19.3474357,103.651149 C19.3474357,105.373421 21,105.966971 21,105.966971 C21,105.966971 19.8447828,108.983288 18.2844295,108.983288 C17.5677386,108.983288 17.0106035,108.535247 16.2554645,108.535247 C15.4859578,108.535247 14.7222949,109 14.2249478,109 C12.8000899,109 11,106.138744 11,103.838793 C11,101.57591 12.5236784,100.388847 13.9528083,100.388847 C14.8818506,100.388847 15.6028135,100.885865 16.0858131,100.885865 Z M16.5559302,98.8890273 C17.363227,98.0043299 18.4855828,98 18.4855828,98 C18.4855828,98 18.6524879,98.8317817 17.8505198,99.6330525 C16.9941747,100.488632 16.0208003,100.348631 16.0208003,100.348631 C16.0208003,100.348631 15.8380504,99.6757476 16.5559302,98.8890273 Z" id="Apple" fill="#FFFFFF" mask="url(#mask-3)"></path>
                </g>
            </g>
        </g>
    </g>
</svg>