<?xml version="1.0" encoding="UTF-8"?>
<svg width="210px" height="170px" viewBox="0 0 210 170" version="1.1" xmlns="http://www.w3.org/2000/svg" xmlns:xlink="http://www.w3.org/1999/xlink">
    <!-- Generator: Sketch 41.2 (35397) - http://www.bohemiancoding.com/sketch -->
    <title>Wire desktop screen</title>
    <desc>Created with Sketch.</desc>
    <defs>
        <path d="M8,8 L8,118 L201.998697,118 C202.001524,117.940232 201.973562,8.03128142 201.998697,8 C201.917555,7.99974911 8,8 8,8 Z" id="path-1"></path>
        <mask id="mask-2" maskContentUnits="userSpaceOnUse" maskUnits="objectBoundingBox" x="0" y="0" width="193.998901" height="110.000112" fill="white">
            <use xlink:href="#path-1"></use>
        </mask>
        <path d="M5,0 C2.22545181,0 0,2.18114563 0,5 L0,141 C0,143.537667 2.22545181,145.792744 5,146 L82,146 L79,161 L71,168 L71,169 C70.8855422,169.383243 71.2237771,170 72,170 L138,170 C138.620157,170 138.738313,169.934391 139,170 C138.975681,169.672251 138.945404,169.409858 139,169 C138.916265,169.110584 139,168 139,168 L131,161 L128,146 L205,146 C207.797404,145.792744 210,143.537667 210,141 L210,5 C210,2.18114563 207.797404,0 205,0 L5,0 Z" id="path-3"></path>
        <mask id="mask-4" maskContentUnits="userSpaceOnUse" maskUnits="objectBoundingBox" x="0" y="0" width="210" height="170" fill="white">
            <use xlink:href="#path-3"></use>
        </mask>
    </defs>
    <g id="FM-site" stroke="none" stroke-width="1" fill="none" fill-rule="evenodd">
        <g id="Desktop-13-15&quot;-Website-4.1" transform="translate(-221.000000, -6781.000000)">
            <g id="WYA" transform="translate(0.000000, 6387.000000)">
                <g id="Wire-desktop-screen" transform="translate(221.000000, 394.000000)">
                    <use id="Inner-screen" stroke="#FFFFFF" mask="url(#mask-2)" stroke-width="2" xlink:href="#path-1"></use>
                    <path d="M105.034112,3.41885883 C104.629609,3.41885883 104.300527,3.74869463 104.300527,4.15412043 C104.300527,4.55941962 104.629609,4.88917101 105.034112,4.88917101 C105.438656,4.88917101 105.767738,4.55941962 105.767738,4.15412043 C105.767738,3.74869463 105.438656,3.41885883 105.034112,3.41885883" id="Camera" fill="#000000"></path>
                    <use id="Hull" stroke="#FFFFFF" mask="url(#mask-4)" stroke-width="2" xlink:href="#path-3"></use>
                    <path d="M82.5,145.5 L127.5,145.5" id="Line" stroke="#FFFFFF" stroke-linecap="square"></path>
                    <path d="M0.5,125.5 L209.502396,125.5" id="Line" stroke="#FFFFFF" stroke-linecap="square"></path>
                    <path d="M66.7041016,58 L66.7041016,43.546875 L70.4541016,43.546875 C71.8994213,43.546875 73.0078086,43.8203098 73.7792969,44.3671875 C74.5507851,44.9140652 74.9365234,45.7018178 74.9365234,46.7304688 C74.9365234,48.4817796 73.94695,49.7285119 71.9677734,50.4707031 C74.3310665,51.193363 75.5126953,52.4986885 75.5126953,54.3867188 C75.5126953,55.5585996 75.1220742,56.4537729 74.3408203,57.0722656 C73.5595664,57.6907583 72.4332756,58 70.9619141,58 L66.7041016,58 Z M68.7353516,56.4667969 L69.1552734,56.4667969 C70.6591872,56.4667969 71.6324848,56.3723968 72.0751953,56.1835938 C72.9215537,55.825519 73.3447266,55.1614632 73.3447266,54.1914062 C73.3447266,53.332027 72.9606158,52.6175159 72.1923828,52.0478516 C71.4241498,51.4781873 70.4638729,51.1933594 69.3115234,51.1933594 L68.7353516,51.1933594 L68.7353516,56.4667969 Z M68.7353516,49.8945312 L69.3896484,49.8945312 C70.4834039,49.8945312 71.3313772,49.6601586 71.9335938,49.1914062 C72.5358103,48.7226539 72.8369141,48.0618532 72.8369141,47.2089844 C72.8369141,45.7897064 71.7366646,45.0800781 69.5361328,45.0800781 L68.7353516,45.0800781 L68.7353516,49.8945312 Z M83.7353516,56.6523438 C82.5830021,57.713547 81.4729871,58.2441406 80.4052734,58.2441406 C79.5263628,58.2441406 78.7972034,57.9690783 78.2177734,57.4189453 C77.6383435,56.8688124 77.3486328,56.1738323 77.3486328,55.3339844 C77.3486328,54.1751244 77.8352816,53.2848338 78.8085938,52.6630859 C79.7819059,52.041338 81.1767487,51.7304688 82.9931641,51.7304688 L83.4521484,51.7304688 L83.4521484,50.4511719 C83.4521484,49.220697 82.8206443,48.6054688 81.5576172,48.6054688 C80.5419871,48.6054688 79.4449929,48.9179656 78.2666016,49.5429688 L78.2666016,47.9511719 C79.562181,47.4238255 80.7763615,47.1601562 81.9091797,47.1601562 C83.0940814,47.1601562 83.9680961,47.4270807 84.53125,47.9609375 C85.0944039,48.4947943 85.3759766,49.3248642 85.3759766,50.4511719 L85.3759766,55.2558594 C85.3759766,56.3561253 85.7145148,56.90625 86.3916016,56.90625 C86.4762374,56.90625 86.5999341,56.8932293 86.7626953,56.8671875 L86.8994141,57.9316406 C86.463214,58.139975 85.9814479,58.2441406 85.4541016,58.2441406 C84.5556596,58.2441406 83.9827486,57.713547 83.7353516,56.6523438 Z M83.4521484,55.6074219 L83.4521484,52.8632812 L82.8076172,52.84375 C81.7529244,52.84375 80.9000684,53.0439433 80.2490234,53.4443359 C79.5979785,53.8447286 79.2724609,54.3704395 79.2724609,55.0214844 C79.2724609,55.4837263 79.4352197,55.8743474 79.7607422,56.1933594 C80.0862646,56.5123714 80.4833961,56.671875 80.9521484,56.671875 C81.7529337,56.671875 82.5862587,56.3170608 83.4521484,55.6074219 Z M93.4521484,58.2441406 C92.0198496,58.2441406 90.8317104,57.713547 89.8876953,56.6523438 C88.9436802,55.5911405 88.4716797,54.2532633 88.4716797,52.6386719 C88.4716797,50.9134028 88.9387974,49.5690152 89.8730469,48.6054688 C90.8072963,47.6419223 92.1109942,47.1601562 93.7841797,47.1601562 C94.6110067,47.1601562 95.5354767,47.2740874 96.5576172,47.5019531 L96.5576172,49.1132812 C95.4703722,48.7942692 94.5849644,48.6347656 93.9013672,48.6347656 C92.9182894,48.6347656 92.1289092,49.0042281 91.5332031,49.7431641 C90.937497,50.4821 90.6396484,51.4667907 90.6396484,52.6972656 C90.6396484,53.8886778 90.945635,54.8522099 91.5576172,55.5878906 C92.1695994,56.3235714 92.9703727,56.6914062 93.9599609,56.6914062 C94.8388716,56.6914062 95.7438104,56.4667991 96.6748047,56.0175781 L96.6748047,57.6777344 C95.4313089,58.0553404 94.3571009,58.2441406 93.4521484,58.2441406 Z M99.5556641,58 L99.5556641,42.5800781 L101.479492,42.5800781 L101.479492,52.5410156 L105.97168,47.3945312 L108.041992,47.3945312 L103.754883,52.3457031 L108.930664,58 L106.469727,58 L101.479492,52.5605469 L101.479492,58 L99.5556641,58 Z M111.186523,58 L111.186523,43.546875 L119.262695,43.546875 L119.262695,45.0800781 L113.237305,45.0800781 L113.237305,49.71875 L118.286133,49.71875 L118.286133,51.2324219 L113.237305,51.2324219 L113.237305,56.4667969 L119.682617,56.4667969 L119.682617,58 L111.186523,58 Z M122.084961,58 L122.084961,47.3945312 L124.008789,47.3945312 L124.008789,49.3867188 C125.024419,47.9023363 126.267896,47.1601562 127.739258,47.1601562 C128.657231,47.1601562 129.389646,47.4514945 129.936523,48.0341797 C130.483401,48.6168649 130.756836,49.3997347 130.756836,50.3828125 L130.756836,58 L128.833008,58 L128.833008,51.0078125 C128.833008,50.2200481 128.717449,49.6585303 128.486328,49.3232422 C128.255207,48.9879541 127.872724,48.8203125 127.338867,48.8203125 C126.160476,48.8203125 125.050461,49.5917892 124.008789,51.1347656 L124.008789,58 L122.084961,58 Z M141.303711,58 L141.303711,56.0078125 C140.522457,57.4987054 139.344083,58.2441406 137.768555,58.2441406 C136.492507,58.2441406 135.488285,57.7786505 134.755859,56.8476562 C134.023434,55.916662 133.657227,54.6438883 133.657227,53.0292969 C133.657227,51.2649651 134.072261,49.8457085 134.902344,48.7714844 C135.732426,47.6972603 136.824538,47.1601562 138.178711,47.1601562 C139.435228,47.1601562 140.476884,47.6419223 141.303711,48.6054688 L141.303711,42.5800781 L143.237305,42.5800781 L143.237305,58 L141.303711,58 Z M141.303711,49.9238281 C140.307612,49.0449175 139.363611,48.6054688 138.47168,48.6054688 C136.629223,48.6054688 135.708008,50.0149599 135.708008,52.8339844 C135.708008,55.3144655 136.528312,56.5546875 138.168945,56.5546875 C139.236659,56.5546875 140.28157,55.972011 141.303711,54.8066406 L141.303711,49.9238281 Z M78.5058594,66.546875 L80.5566406,66.546875 L80.5566406,75.6679688 C80.5566406,77.1197989 80.8251926,78.1761035 81.3623047,78.8369141 C81.8994167,79.4977247 82.7539004,79.828125 83.9257812,79.828125 C85.0716203,79.828125 85.8837867,79.5172557 86.3623047,78.8955078 C86.8408227,78.2737599 87.0800781,77.2207105 87.0800781,75.7363281 L87.0800781,66.546875 L88.8769531,66.546875 L88.8769531,75.7070312 C88.8769531,77.6796974 88.4716837,79.1152299 87.6611328,80.0136719 C86.8505819,80.9121139 85.5599047,81.3613281 83.7890625,81.3613281 C81.9856681,81.3613281 80.6543012,80.895838 79.7949219,79.9648438 C78.9355426,79.0338495 78.5058594,77.5950618 78.5058594,75.6484375 L78.5058594,66.546875 Z M90.7714844,81 L95.5664062,73.7441406 L91.0058594,66.546875 L93.4277344,66.546875 L96.9042969,71.9960938 L100.556641,66.546875 L102.490234,66.546875 L97.8710938,73.5292969 L102.607422,81 L100.185547,81 L96.5136719,75.2675781 L92.7148438,81 L90.7714844,81 Z M105.019531,83.890625 L110.224609,66.546875 L111.738281,66.546875 L106.533203,83.890625 L105.019531,83.890625 Z M115.371094,66.546875 L117.421875,66.546875 L117.421875,75.6679688 C117.421875,77.1197989 117.690427,78.1761035 118.227539,78.8369141 C118.764651,79.4977247 119.619135,79.828125 120.791016,79.828125 C121.936855,79.828125 122.749021,79.5172557 123.227539,78.8955078 C123.706057,78.2737599 123.945312,77.2207105 123.945312,75.7363281 L123.945312,66.546875 L125.742188,66.546875 L125.742188,75.7070312 C125.742188,77.6796974 125.336918,79.1152299 124.526367,80.0136719 C123.715816,80.9121139 122.425139,81.3613281 120.654297,81.3613281 C118.850902,81.3613281 117.519536,80.895838 116.660156,79.9648438 C115.800777,79.0338495 115.371094,77.5950618 115.371094,75.6484375 L115.371094,66.546875 Z M129.335938,81 L129.335938,66.546875 L131.386719,66.546875 L131.386719,81 L129.335938,81 Z" id="BackEnd-UX/UI" fill-opacity="0.75" fill="#FFFFFF"></path>
                </g>
            </g>
        </g>
    </g>
</svg>