<?xml version="1.0" encoding="UTF-8"?>
<svg width="210px" height="170px" viewBox="0 0 210 170" version="1.1" xmlns="http://www.w3.org/2000/svg" xmlns:xlink="http://www.w3.org/1999/xlink">
    <!-- Generator: Sketch 41.2 (35397) - http://www.bohemiancoding.com/sketch -->
    <title>Wire desktop screen</title>
    <desc>Created with Sketch.</desc>
    <defs>
        <path d="M8,8 L8,118 L201.998697,118 C202.001524,117.940232 201.973562,8.03128142 201.998697,8 C201.917555,7.99974911 8,8 8,8 Z" id="path-1"></path>
        <mask id="mask-2" maskContentUnits="userSpaceOnUse" maskUnits="objectBoundingBox" x="0" y="0" width="193.998901" height="110.000112" fill="white">
            <use xlink:href="#path-1"></use>
        </mask>
        <path d="M5,0 C2.22545181,0 0,2.18114563 0,5 L0,141 C0,143.537667 2.22545181,145.792744 5,146 L82,146 L79,161 L71,168 L71,169 C70.8855422,169.383243 71.2237771,170 72,170 L138,170 C138.620157,170 138.738313,169.934391 139,170 C138.975681,169.672251 138.945404,169.409858 139,169 C138.916265,169.110584 139,168 139,168 L131,161 L128,146 L205,146 C207.797404,145.792744 210,143.537667 210,141 L210,5 C210,2.18114563 207.797404,0 205,0 L5,0 Z" id="path-3"></path>
        <mask id="mask-4" maskContentUnits="userSpaceOnUse" maskUnits="objectBoundingBox" x="0" y="0" width="210" height="170" fill="white">
            <use xlink:href="#path-3"></use>
        </mask>
    </defs>
    <g id="FM-site" stroke="none" stroke-width="1" fill="none" fill-rule="evenodd">
        <g id="Desktop-13-15&quot;-Website-4.1" transform="translate(-115.000000, -4617.000000)">
            <g id="Preera" transform="translate(0.000000, 3642.000000)">
                <g id="Wire-desktop-screen" transform="translate(115.000000, 975.000000)">
                    <use id="Inner-screen" stroke="#000000" mask="url(#mask-2)" stroke-width="2" xlink:href="#path-1"></use>
                    <path d="M105.034112,3.41885883 C104.629609,3.41885883 104.300527,3.74869463 104.300527,4.15412043 C104.300527,4.55941962 104.629609,4.88917101 105.034112,4.88917101 C105.438656,4.88917101 105.767738,4.55941962 105.767738,4.15412043 C105.767738,3.74869463 105.438656,3.41885883 105.034112,3.41885883" id="Camera" fill="#000000"></path>
                    <use id="Hull" stroke="#000000" mask="url(#mask-4)" stroke-width="2" xlink:href="#path-3"></use>
                    <path d="M82.5,145.5 L127.5,145.5" id="Line" stroke="#000000" stroke-linecap="square"></path>
                    <path d="M0.5,125.5 L209.502396,125.5" id="Line" stroke="#000000" stroke-linecap="square"></path>
                    <path d="M84.48,69.46 C85.0733363,69.46 85.603331,69.360001 86.07,69.16 C86.536669,68.959999 86.9316651,68.6800018 87.255,68.32 C87.578335,67.9599982 87.8249992,67.5300025 87.995,67.03 C88.1650009,66.5299975 88.25,65.980003 88.25,65.38 L88.25,56.67 L90.18,56.67 L90.18,65.38 C90.18,66.2066708 90.0483347,66.9733298 89.785,67.68 C89.5216654,68.3866702 89.1450025,68.9983308 88.655,69.515 C88.1649976,70.0316693 87.5666702,70.4366652 86.86,70.73 C86.1533298,71.0233348 85.3600044,71.17 84.48,71.17 C83.5999956,71.17 82.8066702,71.0233348 82.1,70.73 C81.3933298,70.4366652 80.7933358,70.0316693 80.3,69.515 C79.8066642,68.9983308 79.4283347,68.3866702 79.165,67.68 C78.9016654,66.9733298 78.77,66.2066708 78.77,65.38 L78.77,56.67 L80.7,56.67 L80.7,65.37 C80.7,65.970003 80.7849992,66.5199975 80.955,67.02 C81.1250009,67.5200025 81.3716651,67.9499982 81.695,68.31 C82.018335,68.6700018 82.4149977,68.9516657 82.885,69.155 C83.3550024,69.3583344 83.8866637,69.46 84.48,69.46 Z M96.84,63.64 L92.11,56.67 L94.04,56.67 C94.1800007,56.67 94.283333,56.6933331 94.35,56.74 C94.416667,56.7866669 94.4766664,56.8533329 94.53,56.94 L98.27,62.68 C98.3166669,62.5399993 98.3866662,62.3866675 98.48,62.22 L102.01,56.98 C102.07,56.8866662 102.135,56.811667 102.205,56.755 C102.275,56.6983331 102.36,56.67 102.46,56.67 L104.31,56.67 L99.56,63.55 L104.47,71 L102.55,71 C102.403333,71 102.288334,70.9616671 102.205,70.885 C102.121666,70.808333 102.053334,70.7233338 102,70.63 L98.16,64.62 C98.1133331,64.7600007 98.0533337,64.8933327 97.98,65.02 L94.24,70.63 C94.1799997,70.7233338 94.1116671,70.808333 94.035,70.885 C93.958333,70.9616671 93.8500007,71 93.71,71 L91.91,71 L96.84,63.64 Z M106.24,71.21 C106.146666,71.4433345 106.008334,71.6166661 105.825,71.73 C105.641666,71.8433339 105.453334,71.9 105.26,71.9 L104.51,71.9 L110.52,56.93 C110.606667,56.7166656 110.729999,56.5533339 110.89,56.44 C111.050001,56.3266661 111.239999,56.27 111.46,56.27 L112.21,56.27 L106.24,71.21 Z M119.4,69.46 C119.993336,69.46 120.523331,69.360001 120.99,69.16 C121.456669,68.959999 121.851665,68.6800018 122.175,68.32 C122.498335,67.9599982 122.744999,67.5300025 122.915,67.03 C123.085001,66.5299975 123.17,65.980003 123.17,65.38 L123.17,56.67 L125.1,56.67 L125.1,65.38 C125.1,66.2066708 124.968335,66.9733298 124.705,67.68 C124.441665,68.3866702 124.065002,68.9983308 123.575,69.515 C123.084998,70.0316693 122.48667,70.4366652 121.78,70.73 C121.07333,71.0233348 120.280004,71.17 119.4,71.17 C118.519996,71.17 117.72667,71.0233348 117.02,70.73 C116.31333,70.4366652 115.713336,70.0316693 115.22,69.515 C114.726664,68.9983308 114.348335,68.3866702 114.085,67.68 C113.821665,66.9733298 113.69,66.2066708 113.69,65.38 L113.69,56.67 L115.62,56.67 L115.62,65.37 C115.62,65.970003 115.704999,66.5199975 115.875,67.02 C116.045001,67.5200025 116.291665,67.9499982 116.615,68.31 C116.938335,68.6700018 117.334998,68.9516657 117.805,69.155 C118.275002,69.3583344 118.806664,69.46 119.4,69.46 Z M130.73,71 L128.79,71 L128.79,56.67 L130.73,56.67 L130.73,71 Z" id="UX/UI" fill="#000000" opacity="0.75"></path>
                </g>
            </g>
        </g>
    </g>
</svg>