<?xml version="1.0" encoding="UTF-8"?>
<svg width="824px" height="42px" viewBox="0 0 824 42" version="1.1" xmlns="http://www.w3.org/2000/svg" xmlns:xlink="http://www.w3.org/1999/xlink">
    <!-- Generator: Sketch 41.2 (35397) - http://www.bohemiancoding.com/sketch -->
    <title>Future Memories</title>
    <desc>Created with Sketch.</desc>
    <defs>
        <polygon id="path-1" points="0 41.7746 823.614 41.7746 823.614 -0.0004 0 -0.0004"></polygon>
    </defs>
    <g id="FM-site" stroke="none" stroke-width="1" fill="none" fill-rule="evenodd">
        <g id="Desktop-13-15&quot;-Website-4.1" transform="translate(-228.000000, -390.000000)">
            <g id="Future-Memories" transform="translate(0.000000, 71.000000)">
                <g transform="translate(228.000000, 319.000000)">
                    <path d="M71.2081,38.9936 C73.9891,38.9936 76.2971,38.4726 78.1321,37.4296 C79.9661,36.3866 81.4151,35.0156 82.4771,33.3156 C83.5401,31.6166 84.2931,29.6856 84.7371,27.5216 C85.1811,25.3586 85.4031,23.1756 85.4031,20.9746 L85.4031,0.2896 L88.3591,0.2896 L88.3591,20.9746 C88.3591,23.7176 88.0591,26.3436 87.4601,28.8536 C86.8611,31.3656 85.8861,33.5766 84.5341,35.4886 C83.1821,37.4006 81.4241,38.9166 79.2621,40.0366 C77.0981,41.1576 74.4331,41.7166 71.2661,41.7166 C67.9821,41.7166 65.2401,41.1286 63.0391,39.9496 C60.8371,38.7716 59.0691,37.2076 57.7371,35.2566 C56.4041,33.3066 55.4571,31.0946 54.8981,28.6226 C54.3371,26.1516 54.0581,23.6016 54.0581,20.9746 L54.0581,0.2896 L57.0131,0.2896 L57.0131,20.9746 C57.0131,23.2546 57.2341,25.4746 57.6791,27.6376 C58.1231,29.8016 58.8961,31.7226 59.9971,33.4026 C61.0971,35.0826 62.5551,36.4356 64.3711,37.4586 C66.1861,38.4826 68.4651,38.9936 71.2081,38.9936 L71.2081,38.9936 Z" id="Fill-1" fill="#FFFFFF"></path>
                    <path d="M190.6796,38.9936 C193.4606,38.9936 195.7686,38.4726 197.6036,37.4296 C199.4376,36.3866 200.8866,35.0156 201.9486,33.3156 C203.0116,31.6166 203.7646,29.6856 204.2086,27.5216 C204.6526,25.3586 204.8746,23.1756 204.8746,20.9746 L204.8746,0.2896 L207.8306,0.2896 L207.8306,20.9746 C207.8306,23.7176 207.5306,26.3436 206.9316,28.8536 C206.3326,31.3656 205.3576,33.5766 204.0056,35.4886 C202.6536,37.4006 200.8956,38.9166 198.7336,40.0366 C196.5696,41.1576 193.9046,41.7166 190.7376,41.7166 C187.4536,41.7166 184.7116,41.1286 182.5106,39.9496 C180.3086,38.7716 178.5406,37.2076 177.2086,35.2566 C175.8756,33.3066 174.9286,31.0946 174.3696,28.6226 C173.8086,26.1516 173.5296,23.6016 173.5296,20.9746 L173.5296,0.2896 L176.4846,0.2896 L176.4846,20.9746 C176.4846,23.2546 176.7056,25.4746 177.1506,27.6376 C177.5946,29.8016 178.3676,31.7226 179.4686,33.4026 C180.5686,35.0826 182.0266,36.4356 183.8426,37.4586 C185.6576,38.4826 187.9366,38.9936 190.6796,38.9936" id="Fill-3" fill="#FFFFFF"></path>
                    <polygon id="Fill-5" fill="#FFFFFF" points="424.2921 41.4272 424.2921 5.8522 408.0691 33.6052 406.2161 33.6052 389.9921 5.8522 389.9921 41.4272 387.0371 41.4272 387.0371 0.2902 389.9921 0.2902 407.1421 29.7232 424.2921 0.2902 427.2481 0.2902 427.2481 41.4272"></polygon>
                    <polygon id="Fill-7" fill="#FFFFFF" points="551.2964 41.4272 551.2964 5.8522 535.0734 33.6052 533.2194 33.6052 516.9964 5.8522 516.9964 41.4272 514.0414 41.4272 514.0414 0.2902 516.9964 0.2902 534.1464 29.7232 551.2964 0.2902 554.2514 0.2902 554.2514 41.4272"></polygon>
                    <path d="M585.4234,20.8584 C585.4234,23.2154 585.8194,25.4844 586.6114,27.6664 C587.4024,29.8494 588.5234,31.7794 589.9714,33.4604 C591.4204,35.1404 593.1484,36.4834 595.1574,37.4874 C597.1654,38.4924 599.3674,38.9934 601.7624,38.9934 C604.2334,38.9934 606.4654,38.4724 608.4544,37.4294 C610.4444,36.3864 612.1424,35.0054 613.5534,33.2864 C614.9624,31.5684 616.0534,29.6274 616.8264,27.4634 C617.5994,25.3004 617.9854,23.0994 617.9854,20.8584 C617.9854,18.5024 617.5804,16.2334 616.7684,14.0504 C615.9574,11.8684 614.8284,9.9374 613.3794,8.2564 C611.9314,6.5764 610.2224,5.2344 608.2524,4.2294 C606.2814,3.2254 604.1184,2.7234 601.7624,2.7234 C599.2904,2.7234 597.0504,3.2444 595.0414,4.2874 C593.0324,5.3304 591.3134,6.7114 589.8844,8.4304 C588.4554,10.1494 587.3544,12.0904 586.5824,14.2534 C585.8094,16.4164 585.4234,18.6184 585.4234,20.8584 M601.7044,41.7164 C598.8454,41.7164 596.2384,41.1184 593.8824,39.9214 C591.5264,38.7234 589.4984,37.1594 587.7984,35.2274 C586.0994,33.2964 584.7864,31.0764 583.8594,28.5644 C582.9314,26.0534 582.4684,23.4854 582.4684,20.8584 C582.4684,18.1164 582.9614,15.4894 583.9454,12.9784 C584.9314,10.4684 586.2824,8.2474 588.0014,6.3154 C589.7204,4.3844 591.7584,2.8484 594.1144,1.7094 C596.4704,0.5704 599.0194,0.0004 601.7624,0.0004 C604.6204,0.0004 607.2384,0.6084 609.6134,1.8254 C611.9884,3.0414 614.0164,4.6354 615.6974,6.6054 C617.3774,8.5754 618.6814,10.8064 619.6084,13.2974 C620.5354,15.7884 620.9994,18.3084 620.9994,20.8584 C620.9994,23.6394 620.5064,26.2854 619.5214,28.7964 C618.5364,31.3074 617.1844,33.5184 615.4654,35.4304 C613.7464,37.3424 611.7084,38.8684 609.3534,40.0074 C606.9964,41.1474 604.4464,41.7164 601.7044,41.7164" id="Fill-9" fill="#FFFFFF"></path>
                    <mask id="mask-2" fill="white">
                        <use xlink:href="#path-1"></use>
                    </mask>
                    <g id="Clip-12"></g>
                    <polygon id="Fill-11" fill="#FFFFFF" mask="url(#mask-2)" points="707.097 41.4266 710.052 41.4266 710.052 0.2896 707.097 0.2896"></polygon>
                    <path d="M819.9056,7.1265 C817.2406,4.1525 813.4746,2.6645 808.6076,2.6645 C804.5896,2.6645 801.6636,3.4285 799.8286,4.9535 C797.9946,6.4805 797.0766,8.5375 797.0766,11.1245 C797.0766,12.4375 797.3086,13.5285 797.7726,14.3975 C798.2356,15.2665 798.9596,16.0115 799.9456,16.6285 C800.9306,17.2475 802.1766,17.7685 803.6826,18.1935 C805.1886,18.6185 807.0036,19.0625 809.1286,19.5255 C811.3316,19.9895 813.3296,20.5015 815.1256,21.0605 C816.9216,21.6215 818.4466,22.3265 819.7026,23.1765 C820.9576,24.0255 821.9236,25.0695 822.5996,26.3055 C823.2756,27.5415 823.6136,29.0665 823.6136,30.8815 C823.6136,32.6985 823.2566,34.2815 822.5426,35.6335 C821.8276,36.9855 820.8236,38.1155 819.5286,39.0225 C818.2346,39.9305 816.6906,40.6155 814.8936,41.0795 C813.0976,41.5435 811.0996,41.7745 808.8966,41.7745 C802.4846,41.7745 797.0576,39.7285 792.6156,35.6335 L794.1796,33.2575 C795.9186,35.0735 798.0426,36.5125 800.5536,37.5735 C803.0646,38.6375 805.8846,39.1675 809.0136,39.1675 C812.6056,39.1675 815.4156,38.5105 817.4436,37.1975 C819.4706,35.8845 820.4846,33.8945 820.4846,31.2295 C820.4846,29.8785 820.2146,28.7295 819.6736,27.7825 C819.1326,26.8365 818.3316,26.0155 817.2696,25.3195 C816.2066,24.6245 814.8656,24.0255 813.2426,23.5235 C811.6206,23.0225 809.7276,22.5385 807.5646,22.0745 C805.3626,21.6115 803.4216,21.1195 801.7416,20.5975 C800.0606,20.0765 798.6506,19.4205 797.5116,18.6275 C796.3716,17.8365 795.5126,16.8805 794.9336,15.7595 C794.3546,14.6405 794.0646,13.2305 794.0646,11.5305 C794.0646,9.6765 794.4206,8.0345 795.1366,6.6055 C795.8506,5.1765 796.8456,3.9685 798.1206,2.9845 C799.3946,1.9995 800.9196,1.2555 802.6976,0.7535 C804.4736,0.2515 806.4436,-0.0005 808.6076,-0.0005 C811.2726,-0.0005 813.6486,0.3965 815.7346,1.1875 C817.8196,1.9795 819.7116,3.1865 821.4116,4.8085 L819.9056,7.1265 Z" id="Fill-13" fill="#FFFFFF" mask="url(#mask-2)"></path>
                    <polygon id="Fill-14" fill="#FFFFFF" mask="url(#mask-2)" points="10.826 21.8436 23.176 21.8436 23.176 19.2936 10.826 19.2936"></polygon>
                    <polyline id="Fill-15" fill="#FFFFFF" mask="url(#mask-2)" points="2.9553 2.9547 26.7683 2.9547 26.7683 0.2897 0.0003 0.2897 0.0003 41.4267 2.9553 41.4267"></polyline>
                    <path d="M241.2035,2.9547 L255.2245,2.9547 C256.4995,2.9547 257.6875,3.2357 258.7885,3.7947 C259.8895,4.3557 260.8535,5.0987 261.6855,6.0257 C262.5155,6.9527 263.1715,8.0247 263.6555,9.2417 C264.1375,10.4577 264.3795,11.7237 264.3795,13.0367 C264.3795,14.3117 264.1765,15.5567 263.7705,16.7737 C263.3655,17.9907 262.7765,19.0717 262.0035,20.0177 C261.2305,20.9657 260.3035,21.7277 259.2225,22.3067 C258.1405,22.8867 256.9425,23.1757 255.6305,23.1757 L248.9955,23.1757 L248.9955,25.8997 L254.5295,25.8997 L264.4945,41.4267 L267.9135,41.4267 L257.6585,25.4357 C259.0865,25.2037 260.4005,24.7217 261.5975,23.9877 C262.7955,23.2537 263.8185,22.3267 264.6695,21.2057 C265.5175,20.0857 266.1755,18.8217 266.6385,17.4107 C267.1025,16.0017 267.3345,14.5427 267.3345,13.0367 C267.3345,11.4917 267.0345,9.9567 266.4365,8.4297 C265.8375,6.9047 265.0065,5.5327 263.9455,4.3167 C262.8815,3.0997 261.6175,2.1247 260.1495,1.3907 C258.6815,0.6577 257.0785,0.2897 255.3405,0.2897 L238.2485,0.2897 L238.2485,41.4267 L241.2035,41.4267" id="Fill-16" fill="#FFFFFF" mask="url(#mask-2)"></path>
                    <polyline id="Fill-17" fill="#FFFFFF" mask="url(#mask-2)" points="299.0848 2.9547 323.0138 2.9547 323.0138 0.2897 296.1298 0.2897 296.1298 41.4267 323.5348 41.4267 323.5348 38.7617 299.0848 38.7617"></polyline>
                    <polygon id="Fill-18" fill="#FFFFFF" mask="url(#mask-2)" points="307.026 21.6706 320.001 21.6706 320.001 19.1206 307.026 19.1206"></polygon>
                    <polyline id="Fill-19" fill="#FFFFFF" mask="url(#mask-2)" points="461.2584 2.9547 485.1874 2.9547 485.1874 0.2897 458.3024 0.2897 458.3024 41.4267 485.7084 41.4267 485.7084 38.7617 461.2584 38.7617"></polyline>
                    <polygon id="Fill-20" fill="#FFFFFF" mask="url(#mask-2)" points="469.186 21.6706 482.175 21.6706 482.175 19.1206 469.186 19.1206"></polygon>
                    <path d="M652.17,2.9547 L666.191,2.9547 C667.466,2.9547 668.654,3.2357 669.755,3.7947 C670.856,4.3557 671.821,5.0987 672.652,6.0257 C673.482,6.9527 674.139,8.0247 674.622,9.2417 C675.104,10.4577 675.346,11.7237 675.346,13.0367 C675.346,14.3117 675.144,15.5567 674.737,16.7737 C674.332,17.9907 673.743,19.0717 672.971,20.0177 C672.197,20.9657 671.27,21.7277 670.189,22.3067 C669.107,22.8867 667.91,23.1757 666.597,23.1757 L660.148,23.1757 L660.148,25.8997 L665.496,25.8997 L675.462,41.4267 L678.88,41.4267 L668.625,25.4357 C670.053,25.2037 671.367,24.7217 672.564,23.9877 C673.762,23.2537 674.786,22.3267 675.636,21.2057 C676.485,20.0857 677.142,18.8217 677.606,17.4107 C678.069,16.0017 678.301,14.5427 678.301,13.0367 C678.301,11.4917 678.001,9.9567 677.402,8.4297 C676.804,6.9047 675.973,5.5327 674.912,4.3167 C673.849,3.0997 672.584,2.1247 671.116,1.3907 C669.648,0.6577 668.046,0.2897 666.308,0.2897 L649.215,0.2897 L649.215,41.4267 L652.17,41.4267" id="Fill-21" fill="#FFFFFF" mask="url(#mask-2)"></path>
                    <polygon id="Fill-22" fill="#FFFFFF" mask="url(#mask-2)" points="752.001 21.6706 764.978 21.6706 764.978 19.1206 752.001 19.1206"></polygon>
                    <polyline id="Fill-23" fill="#FFFFFF" mask="url(#mask-2)" points="744.0617 2.9547 767.9907 2.9547 767.9907 0.2897 741.1067 0.2897 741.1067 41.4267 768.5117 41.4267 768.5117 38.7617 744.0617 38.7617"></polyline>
                    <polygon id="Fill-24" fill="#FFFFFF" mask="url(#mask-2)" points="147.5154 2.9547 132.4514 2.9547 132.4514 41.4267 129.4954 41.4267 129.4954 2.9547 114.4314 2.9547 114.4314 0.2897 147.5154 0.2897"></polygon>
                </g>
            </g>
        </g>
    </g>
</svg>