<?xml version="1.0" encoding="UTF-8"?>
<svg width="143px" height="210px" viewBox="0 0 143 210" version="1.1" xmlns="http://www.w3.org/2000/svg" xmlns:xlink="http://www.w3.org/1999/xlink">
    <!-- Generator: Sketch 41.2 (35397) - http://www.bohemiancoding.com/sketch -->
    <title>iPad wires</title>
    <desc>Created with Sketch.</desc>
    <defs>
        <polygon id="path-1" points="9 21 9 188 134 188 134 21"></polygon>
        <mask id="mask-2" maskContentUnits="userSpaceOnUse" maskUnits="objectBoundingBox" x="0" y="0" width="125" height="167" fill="white">
            <use xlink:href="#path-1"></use>
        </mask>
        <path d="M143,10 C143,4.53956009 138.426951,0 132.929577,0 L10.0704225,0 C4.57304921,0 0,4.53956009 0,10 L0,200 C0,205.46044 4.57304921,210 10.0704225,210 L132.929577,210 C138.426951,210 143,205.46044 143,200 L143,10 Z" id="path-3"></path>
        <mask id="mask-4" maskContentUnits="userSpaceOnUse" maskUnits="objectBoundingBox" x="0" y="0" width="143" height="210" fill="white">
            <use xlink:href="#path-3"></use>
        </mask>
    </defs>
    <g id="FM-site" stroke="none" stroke-width="1" fill="none" fill-rule="evenodd">
        <g id="Desktop-13-15&quot;-Website-4.1" transform="translate(-116.000000, -5337.000000)">
            <g id="SKF-Machine-health" transform="translate(0.000000, 4867.000000)">
                <g id="iPad-wires" transform="translate(116.000000, 470.000000)">
                    <g>
                        <use id="Inner-screen" stroke="#FFFFFF" mask="url(#mask-2)" stroke-width="2" xlink:href="#path-1"></use>
                        <use id="Hull" stroke="#FFFFFF" mask="url(#mask-4)" stroke-width="2" xlink:href="#path-3"></use>
                        <path d="M72,194 C69.2429892,194 67,196.243007 67,199 C67,201.756993 69.2429892,204 72,204 C74.7570108,204 77,201.756993 77,199 C77,196.243007 74.7570108,194 72,194" id="Button" stroke="#FFFFFF"></path>
                        <path d="M71.6616396,8.21533257 C70.9971005,8.21533257 70.4565196,8.75516544 70.4565196,9.41871 C70.4565196,10.0821796 70.9971005,10.6220874 71.6616396,10.6220874 C72.3261037,10.6220874 72.8666096,10.0821796 72.8666096,9.41871 C72.8666096,8.75516544 72.3261037,8.21533257 71.6616396,8.21533257" id="Camera" fill="#FFFFFF"></path>
                        <path d="M72.1544635,100.312459 C72.9008288,100.312459 74.2859408,99.290249 76.0889042,99.290249 C79.1923938,99.290249 80.413267,101.490616 80.413267,101.490616 C80.413267,101.490616 78.0253842,102.707047 78.0253842,105.658748 C78.0253842,108.988518 81,110.136065 81,110.136065 C81,110.136065 78.920609,115.96769 76.1119731,115.96769 C74.8219295,115.96769 73.8190862,115.101465 72.459836,115.101465 C71.074724,115.101465 69.7001308,116 68.804906,116 C66.2401618,116 63,110.468163 63,106.02153 C63,101.646564 65.7426212,99.351544 68.315055,99.351544 C69.9873311,99.351544 71.2850643,100.312459 72.1544635,100.312459 Z M72.9315801,95.9144926 C74.3823078,94.0093244 76.3992024,94 76.3992024,94 C76.3992024,94 76.6991341,95.7912159 75.2579821,97.5167277 C73.7191138,99.3591914 71.9699415,99.0577039 71.9699415,99.0577039 C71.9699415,99.0577039 71.6415365,97.6086701 72.9315801,95.9144926 Z" id="Apple" fill="#FFFFFF"></path>
                    </g>
                </g>
            </g>
        </g>
    </g>
</svg>