<?xml version="1.0" encoding="UTF-8"?>
<svg width="143px" height="210px" viewBox="0 0 143 210" version="1.1" xmlns="http://www.w3.org/2000/svg" xmlns:xlink="http://www.w3.org/1999/xlink">
    <!-- Generator: Sketch 41.2 (35397) - http://www.bohemiancoding.com/sketch -->
    <title>iPad wires</title>
    <desc>Created with Sketch.</desc>
    <defs>
        <polygon id="path-1" points="9 21 9 188 134 188 134 21"></polygon>
        <mask id="mask-2" maskContentUnits="userSpaceOnUse" maskUnits="objectBoundingBox" x="0" y="0" width="125" height="167" fill="white">
            <use xlink:href="#path-1"></use>
        </mask>
        <path d="M143,10 C143,4.53956009 138.426951,0 132.929577,0 L10.0704225,0 C4.57304921,0 0,4.53956009 0,10 L0,200 C0,205.46044 4.57304921,210 10.0704225,210 L132.929577,210 C138.426951,210 143,205.46044 143,200 L143,10 Z" id="path-3"></path>
        <mask id="mask-4" maskContentUnits="userSpaceOnUse" maskUnits="objectBoundingBox" x="0" y="0" width="143" height="210" fill="white">
            <use xlink:href="#path-3"></use>
        </mask>
    </defs>
    <g id="FM-site" stroke="none" stroke-width="1" fill="none" fill-rule="evenodd">
        <g id="Desktop-13-15&quot;-Website-4.1" transform="translate(-115.000000, -2591.000000)">
            <g id="Predicare" transform="translate(0.000000, 2122.000000)">
                <g id="iPad-wires" transform="translate(115.000000, 469.000000)">
                    <use id="Inner-screen" stroke="#FFFFFF" mask="url(#mask-2)" stroke-width="2" xlink:href="#path-1"></use>
                    <use id="Hull" stroke="#FFFFFF" mask="url(#mask-4)" stroke-width="2" xlink:href="#path-3"></use>
                    <path d="M72,194 C69.2429892,194 67,196.243007 67,199 C67,201.756993 69.2429892,204 72,204 C74.7570108,204 77,201.756993 77,199 C77,196.243007 74.7570108,194 72,194" id="Button" stroke="#FFFFFF"></path>
                    <path d="M71.6616396,8.21533257 C70.9971005,8.21533257 70.4565196,8.75516544 70.4565196,9.41871 C70.4565196,10.0821796 70.9971005,10.6220874 71.6616396,10.6220874 C72.3261037,10.6220874 72.8666096,10.0821796 72.8666096,9.41871 C72.8666096,8.75516544 72.3261037,8.21533257 71.6616396,8.21533257" id="Camera" fill="#FFFFFF"></path>
                    <path d="M51.48,110.46 C52.0733363,110.46 52.603331,110.360001 53.07,110.16 C53.536669,109.959999 53.9316651,109.680002 54.255,109.32 C54.578335,108.959998 54.8249992,108.530002 54.995,108.03 C55.1650009,107.529997 55.25,106.980003 55.25,106.38 L55.25,97.67 L57.18,97.67 L57.18,106.38 C57.18,107.206671 57.0483347,107.97333 56.785,108.68 C56.5216654,109.38667 56.1450025,109.998331 55.655,110.515 C55.1649976,111.031669 54.5666702,111.436665 53.86,111.73 C53.1533298,112.023335 52.3600044,112.17 51.48,112.17 C50.5999956,112.17 49.8066702,112.023335 49.1,111.73 C48.3933298,111.436665 47.7933358,111.031669 47.3,110.515 C46.8066642,109.998331 46.4283347,109.38667 46.165,108.68 C45.9016654,107.97333 45.77,107.206671 45.77,106.38 L45.77,97.67 L47.7,97.67 L47.7,106.37 C47.7,106.970003 47.7849992,107.519997 47.955,108.02 C48.1250009,108.520002 48.3716651,108.949998 48.695,109.31 C49.018335,109.670002 49.4149977,109.951666 49.885,110.155 C50.3550024,110.358334 50.8866637,110.46 51.48,110.46 Z M63.84,104.64 L59.11,97.67 L61.04,97.67 C61.1800007,97.67 61.283333,97.6933331 61.35,97.74 C61.416667,97.7866669 61.4766664,97.8533329 61.53,97.94 L65.27,103.68 C65.3166669,103.539999 65.3866662,103.386667 65.48,103.22 L69.01,97.98 C69.0700003,97.8866662 69.1349997,97.8116669 69.205,97.755 C69.2750004,97.698333 69.3599995,97.67 69.46,97.67 L71.31,97.67 L66.56,104.55 L71.47,112 L69.55,112 C69.4033326,112 69.2883338,111.961667 69.205,111.885 C69.1216663,111.808333 69.0533336,111.723334 69,111.63 L65.16,105.62 C65.1133331,105.760001 65.0533337,105.893333 64.98,106.02 L61.24,111.63 C61.1799997,111.723334 61.1116671,111.808333 61.035,111.885 C60.958333,111.961667 60.8500007,112 60.71,112 L58.91,112 L63.84,104.64 Z M73.24,112.21 C73.1466662,112.443334 73.0083343,112.616666 72.825,112.73 C72.6416658,112.843334 72.4533343,112.9 72.26,112.9 L71.51,112.9 L77.52,97.93 C77.6066671,97.7166656 77.7299992,97.5533339 77.89,97.44 C78.0500008,97.3266661 78.2399989,97.27 78.46,97.27 L79.21,97.27 L73.24,112.21 Z M86.4,110.46 C86.9933363,110.46 87.523331,110.360001 87.99,110.16 C88.456669,109.959999 88.8516651,109.680002 89.175,109.32 C89.498335,108.959998 89.7449992,108.530002 89.915,108.03 C90.0850009,107.529997 90.17,106.980003 90.17,106.38 L90.17,97.67 L92.1,97.67 L92.1,106.38 C92.1,107.206671 91.9683347,107.97333 91.705,108.68 C91.4416654,109.38667 91.0650025,109.998331 90.575,110.515 C90.0849976,111.031669 89.4866702,111.436665 88.78,111.73 C88.0733298,112.023335 87.2800044,112.17 86.4,112.17 C85.5199956,112.17 84.7266702,112.023335 84.02,111.73 C83.3133298,111.436665 82.7133358,111.031669 82.22,110.515 C81.7266642,109.998331 81.3483347,109.38667 81.085,108.68 C80.8216654,107.97333 80.69,107.206671 80.69,106.38 L80.69,97.67 L82.62,97.67 L82.62,106.37 C82.62,106.970003 82.7049992,107.519997 82.875,108.02 C83.0450009,108.520002 83.2916651,108.949998 83.615,109.31 C83.938335,109.670002 84.3349977,109.951666 84.805,110.155 C85.2750024,110.358334 85.8066637,110.46 86.4,110.46 Z M97.73,112 L95.79,112 L95.79,97.67 L97.73,97.67 L97.73,112 Z" id="UX/UI" fill="#FFFFFF" opacity="0.75"></path>
                </g>
            </g>
        </g>
    </g>
</svg>