<?xml version="1.0" encoding="UTF-8"?>
<svg width="56px" height="119px" viewBox="0 0 56 119" version="1.1" xmlns="http://www.w3.org/2000/svg" xmlns:xlink="http://www.w3.org/1999/xlink">
    <!-- Generator: Sketch 41.2 (35397) - http://www.bohemiancoding.com/sketch -->
    <title>iPhone</title>
    <desc>Created with Sketch.</desc>
    <defs>
        <path d="M9.16363636,1.01709402 C4.32041137,0.564739562 0.530446549,4.25147527 1.01818182,9.15384615 L1.01818182,16.2735043 L0,16.2735043 C0.146857916,16.7590466 0,16.876796 0,17.2905983 L0,21.3589744 C0,21.4963808 0.146857916,21.614054 0,21.3589744 L1.01818182,21.3589744 L1.01818182,28.4786325 L0,28.4786325 C0.146857916,28.1148084 0,28.2325578 0,28.4786325 L0,31.5299145 C0,31.4803056 0.146857916,31.5979787 0,31.5299145 L1.01818182,31.5299145 L1.01818182,37.6324786 L0,37.6324786 C0.146857916,38.02252 0,38.1402694 0,38.6495726 L0,41.7008547 C0,41.3880172 0.14670636,41.5056142 0,41.7008547 L1.01818182,41.7008547 L1.01818182,110.863248 C0.530446549,112.719654 1.42106631,114.854842 3.05454545,116.965812 C4.63989175,118.092758 6.7514479,119 9.16363636,119 L47.8545455,119 C52.3113505,119 56,115.165182 56,110.863248 L56,9.15384615 C56,6.59205782 55.1512855,4.52203201 53.9636364,3.05128205 C52.0532503,1.40697126 49.9835995,0.564739562 47.8545455,1.01709402 L46.8363636,1.01709402 L46.8363636,0 L37.6727273,0 C38.136682,0.0312473982 38.1163735,0 37.6727273,0 L37.6727273,1.01709402 L9.16363636,1.01709402 Z" id="path-1"></path>
        <mask id="mask-2" maskContentUnits="userSpaceOnUse" maskUnits="objectBoundingBox" x="0" y="0" width="56" height="119" fill="white">
            <use xlink:href="#path-1"></use>
        </mask>
        <rect id="path-3" x="23" y="9" width="12" height="3" rx="1.5"></rect>
        <mask id="mask-4" maskContentUnits="userSpaceOnUse" maskUnits="objectBoundingBox" x="0" y="0" width="12" height="3" fill="white">
            <use xlink:href="#path-3"></use>
        </mask>
        <path d="M52,17 C52,17.1002629 51.8998079,17 52,17 L5,17 C5.10019206,17 5,17.1002629 5,17 L5,101 C5,100.899737 5.10019206,101 5,101 L52,101 C51.8998079,101 52,100.899737 52,101 L52,17 Z" id="path-5"></path>
        <mask id="mask-6" maskContentUnits="userSpaceOnUse" maskUnits="objectBoundingBox" x="0" y="0" width="47" height="84" fill="white">
            <use xlink:href="#path-5"></use>
        </mask>
    </defs>
    <g id="FM-site" stroke="none" stroke-width="1" fill="none" fill-rule="evenodd">
        <g id="Desktop-13-15&quot;-Website-4.1" transform="translate(-279.000000, -5428.000000)">
            <g id="SKF-Machine-health" transform="translate(0.000000, 4867.000000)">
                <g id="iPhone" transform="translate(279.000000, 561.000000)">
                    <g>
                        <g>
                            <use id="Hull" stroke="#FFFFFF" mask="url(#mask-2)" stroke-width="2" xlink:href="#path-1"></use>
                            <path d="M28.6580803,5.34529464 C28.1065803,5.34529464 27.6580803,5.79389464 27.6580803,6.34529464 C27.6580803,6.89669464 28.1065803,7.34529464 28.6580803,7.34529464 C29.2094803,7.34529464 29.6580803,6.89669464 29.6580803,6.34529464 C29.6580803,5.79389464 29.2094803,5.34529464 28.6580803,5.34529464" id="Camera" fill="#FFFFFF"></path>
                            <use id="Speaker" stroke="#FFFFFF" mask="url(#mask-4)" stroke-width="2" xlink:href="#path-3"></use>
                            <path d="M29,105 C26.2429688,105 24,107.242969 24,110 C24,112.757031 26.2429688,115 29,115 C31.7570313,115 34,112.757031 34,110 C34,107.242969 31.7570313,105 29,105" id="Button" stroke="#FFFFFF"></path>
                            <use id="Screen" stroke="#FFFFFF" mask="url(#mask-6)" stroke-width="2" xlink:href="#path-5"></use>
                            <path d="M29.1544635,54.3124586 C29.9008288,54.3124586 31.2859408,53.290249 33.0889042,53.290249 C36.1923938,53.290249 37.413267,55.4906162 37.413267,55.4906162 C37.413267,55.4906162 35.0253842,56.707047 35.0253842,59.6587476 C35.0253842,62.9885184 38,64.1360646 38,64.1360646 C38,64.1360646 35.920609,69.96769 33.1119731,69.96769 C31.8219295,69.96769 30.8190862,69.1014646 29.459836,69.1014646 C28.074724,69.1014646 26.7001308,70 25.804906,70 C23.2401618,70 20,64.4681635 20,60.0215301 C20,55.6465642 22.7426212,53.351544 25.315055,53.351544 C26.9873311,53.351544 28.2850643,54.3124586 29.1544635,54.3124586 Z M29.9315801,49.9144926 C31.3823078,48.0093244 33.3992024,48 33.3992024,48 C33.3992024,48 33.6991341,49.7912159 32.2579821,51.5167277 C30.7191138,53.3591914 28.9699415,53.0577039 28.9699415,53.0577039 C28.9699415,53.0577039 28.6415365,51.6086701 29.9315801,49.9144926 Z" id="Apple" fill="#FFFFFF"></path>
                        </g>
                    </g>
                </g>
            </g>
        </g>
    </g>
</svg>