<?xml version="1.0" encoding="UTF-8"?>
<svg width="30px" height="31px" viewBox="0 0 30 31" version="1.1" xmlns="http://www.w3.org/2000/svg" xmlns:xlink="http://www.w3.org/1999/xlink">
    <!-- Generator: Sketch 41.2 (35397) - http://www.bohemiancoding.com/sketch -->
    <title>Shape</title>
    <desc>Created with Sketch.</desc>
    <defs></defs>
    <g id="FM-site" stroke="none" stroke-width="1" fill="none" fill-rule="evenodd">
        <g id="Desktop-13-15&quot;-Website-4.1" transform="translate(-591.000000, -8268.000000)" fill="#000000">
            <g id="Contacts" transform="translate(0.000000, 7731.000000)">
                <g id="Oskar" transform="translate(495.000000, 352.000000)">
                    <g id="Group-3" transform="translate(96.000000, 185.000000)">
                        <path d="M0.749885586,9.64796276 L6.54445603,9.64796276 L6.54445603,30.0863088 L0.749885586,30.0863088 L0.749885586,9.64796276 Z M3.49946607,7.09148381 L3.45751443,7.09148381 C1.35993237,7.09148381 5.32907052e-15,5.52908409 5.32907052e-15,3.55055818 C5.32907052e-15,1.53157556 1.40013603,0 3.53966973,0 C5.67745544,0 6.9919402,1.52772254 7.03389184,3.54477865 C7.03389184,5.52330456 5.67745544,7.09148381 3.49946607,7.09148381 L3.49946607,7.09148381 Z M29.7297297,30.0882353 L23.1590539,30.0882353 L23.1590539,19.5097681 C23.1590539,16.7413731 22.1312387,14.8533931 19.871094,14.8533931 C18.1423368,14.8533931 17.1809451,16.1268163 16.7334609,17.3578563 C16.5656543,17.7971006 16.5918741,18.4116574 16.5918741,19.0281406 L16.5918741,30.0882353 L10.0823778,30.0882353 C10.0823778,30.0882353 10.1662811,11.3509977 10.0823778,9.64796276 L16.5918741,9.64796276 L16.5918741,12.8556021 C16.9764308,11.4531028 19.056533,9.45145872 22.3759566,9.45145872 C26.4942094,9.45145872 29.7297297,12.3932397 29.7297297,18.7218255 L29.7297297,30.0882353 L29.7297297,30.0882353 Z" id="Shape"></path>
                    </g>
                </g>
            </g>
        </g>
    </g>
</svg>