<?xml version="1.0" encoding="UTF-8"?>
<svg width="36px" height="29px" viewBox="0 0 36 29" version="1.1" xmlns="http://www.w3.org/2000/svg" xmlns:xlink="http://www.w3.org/1999/xlink">
    <!-- Generator: Sketch 41.2 (35397) - http://www.bohemiancoding.com/sketch -->
    <title>Fill 1</title>
    <desc>Created with Sketch.</desc>
    <defs></defs>
    <g id="FM-site" stroke="none" stroke-width="1" fill="none" fill-rule="evenodd">
        <g id="Desktop-13-15&quot;-Website-4.1" transform="translate(-655.000000, -8270.000000)" fill="#000000">
            <g id="Contacts" transform="translate(0.000000, 7731.000000)">
                <g id="Oskar" transform="translate(495.000000, 352.000000)">
                    <g id="Group-3" transform="translate(96.000000, 185.000000)">
                        <path d="M82.4324324,15.1027055 L68.3792283,6.26945072 L96.4856366,6.26945072 L82.4324324,15.1027055 Z M96.4856366,27.4701169 L68.3792283,27.4701169 L68.3792283,9.80360732 L82.4324324,18.6368621 L96.4856366,9.80360732 L96.4856366,27.4701169 Z M96.4856366,2.73529412 L68.3792283,2.73529412 C66.445691,2.73529412 64.881863,4.32502357 64.881863,6.26945072 L64.8648649,27.4701169 C64.8648649,29.4102705 66.445691,31 68.3792283,31 L96.4856366,31 C98.4191739,31 100,29.4102705 100,27.4701169 L100,6.26945072 C100,4.32502357 98.4191739,2.73529412 96.4856366,2.73529412 L96.4856366,2.73529412 Z" id="Fill-1"></path>
                    </g>
                </g>
            </g>
        </g>
    </g>
</svg>